<svg width="645" height="444" viewBox="0 0 645 444" fill="none" xmlns="http://www.w3.org/2000/svg">
<path d="M540.274 244.959H533.668L522.983 153.695H529.589L540.274 244.959Z" fill="#FF6E00"/>
<path d="M530.351 160.199L524.505 166.681L524.129 163.477L529.977 156.995L530.351 160.199Z" fill="white"/>
<path d="M531.296 168.271L525.449 174.753L525.073 171.548L530.921 165.066L531.296 168.271Z" fill="white"/>
<path d="M532.241 176.342L526.394 182.824L526.019 179.62L531.867 173.138L532.241 176.342Z" fill="white"/>
<path d="M533.186 184.413L527.339 190.895L526.963 187.691L532.811 181.209L533.186 184.413Z" fill="white"/>
<path d="M534.131 192.484L528.285 198.965L527.909 195.762L533.757 189.28L534.131 192.484Z" fill="white"/>
<path d="M535.076 200.556L529.228 207.036L528.853 203.833L534.701 197.352L535.076 200.556Z" fill="white"/>
<path d="M536.022 208.627L530.174 215.108L529.799 211.905L535.646 205.423L536.022 208.627Z" fill="white"/>
<path d="M536.966 216.698L531.118 223.18L530.744 219.977L536.591 213.495L536.966 216.698Z" fill="white"/>
<path d="M537.912 224.769L532.064 231.25L531.689 228.046L537.536 221.565L537.912 224.769Z" fill="white"/>
<path d="M538.856 232.84L533.008 239.322L532.634 236.117L538.48 229.637L538.856 232.84Z" fill="white"/>
<path d="M573.305 244.959L562.389 338.933C561.781 344.122 557.307 348.038 551.987 348.038H516.35C511.03 348.038 506.556 344.122 505.949 338.933L494.968 244.959H573.305Z" fill="#A9D8D5"/>
<path d="M539.802 240.911L536.15 244.959H533.669L533.579 244.189L539.427 237.708L539.802 240.911Z" fill="white"/>
<path d="M575.167 229.789L562.389 338.933C561.781 344.121 557.307 348.038 551.987 348.038H516.349C511.029 348.038 506.555 344.121 505.948 338.933L493.169 229.789H575.167Z" stroke="#A9D8D5" stroke-width="5" stroke-miterlimit="10"/>
<path d="M524.857 286.69L558.882 262.725C563.245 272.068 560.751 283.16 552.364 289.067C543.977 294.975 532.475 293.742 524.857 286.69Z" fill="#F1B104"/>
<path d="M546.535 289L543.507 276.899L554.2 283.582C553.225 284.795 552.066 285.892 550.731 286.833C549.411 287.762 548 288.482 546.535 289Z" fill="#FF6E00"/>
<path d="M544.818 275.2L558.018 272.323C558.06 275.597 557.23 278.81 555.577 281.597L544.818 275.2Z" fill="#FF6E00"/>
<path d="M534.429 288.972L541.471 277.557L544.204 289.645C540.973 290.309 537.59 290.06 534.429 288.972Z" fill="#FF6E00"/>
<path d="M531.579 287.729C530.127 286.952 528.754 285.98 527.505 284.825L539.271 276.537L531.579 287.729Z" fill="#FF6E00"/>
<path d="M544.346 272.962L556.233 264.589C556.956 266.136 557.457 267.741 557.738 269.358L544.346 272.962Z" fill="#FF6E00"/>
<path d="M573.184 223.552H495.152C491.643 223.552 488.798 226.345 488.798 229.79H579.538C579.538 226.345 576.693 223.552 573.184 223.552Z" stroke="#573240" stroke-width="5" stroke-miterlimit="10" stroke-linecap="round"/>
<path d="M573.368 223.551C569.589 207.739 555.222 196.56 538.679 196.56H529.658C513.115 196.56 498.747 207.739 494.969 223.551H573.368V223.551Z" stroke="#573240" stroke-width="5" stroke-miterlimit="10" stroke-linecap="round"/>
<path d="M545.932 341.438H532.339C530.64 341.438 529.263 340.087 529.263 338.419V325.074C529.263 323.406 530.64 322.055 532.339 322.055H545.932C547.63 322.055 549.007 323.407 549.007 325.074V338.419C549.007 340.087 547.63 341.438 545.932 341.438Z" fill="#E0F1F0"/>
<path d="M556.828 317.416H546.132C544.433 317.416 543.056 316.064 543.056 314.397V303.895C543.056 302.228 544.433 300.876 546.132 300.876H556.828C558.527 300.876 559.904 302.228 559.904 303.895V314.397C559.903 316.064 558.527 317.416 556.828 317.416Z" fill="#E0F1F0"/>
<path d="M520.504 325.489H509.807C508.109 325.489 506.732 324.137 506.732 322.469V311.968C506.732 310.3 508.109 308.948 509.807 308.948H520.504C522.203 308.948 523.579 310.3 523.579 311.968V322.469C523.579 324.137 522.202 325.489 520.504 325.489Z" fill="#E0F1F0"/>
<path d="M527.717 276.651C528.724 276.651 529.54 275.85 529.54 274.861C529.54 273.873 528.724 273.071 527.717 273.071C526.71 273.071 525.894 273.873 525.894 274.861C525.894 275.85 526.71 276.651 527.717 276.651Z" stroke="white" stroke-width="5" stroke-miterlimit="10"/>
<path d="M518.127 302.84C519.134 302.84 519.95 302.039 519.95 301.051C519.95 300.062 519.134 299.261 518.127 299.261C517.12 299.261 516.304 300.062 516.304 301.051C516.304 302.039 517.12 302.84 518.127 302.84Z" stroke="white" stroke-width="5" stroke-miterlimit="10"/>
<path d="M513.724 261.919C515.149 261.919 516.304 260.784 516.304 259.386C516.304 257.987 515.149 256.853 513.724 256.853C512.299 256.853 511.144 257.987 511.144 259.386C511.144 260.784 512.299 261.919 513.724 261.919Z" stroke="white" stroke-width="5" stroke-miterlimit="10"/>
<path d="M557.609 288.015C559.034 288.015 560.189 286.881 560.189 285.482C560.189 284.083 559.034 282.949 557.609 282.949C556.184 282.949 555.029 284.083 555.029 285.482C555.029 286.881 556.184 288.015 557.609 288.015Z" stroke="white" stroke-width="5" stroke-miterlimit="10"/>
<path d="M536.661 303.964C537.48 303.964 538.145 303.312 538.145 302.507C538.145 301.703 537.48 301.051 536.661 301.051C535.842 301.051 535.178 301.703 535.178 302.507C535.178 303.312 535.842 303.964 536.661 303.964Z" stroke="white" stroke-width="5" stroke-miterlimit="10"/>
<path d="M561.19 291.531C561.725 291.531 562.158 291.105 562.158 290.581C562.158 290.056 561.725 289.631 561.19 289.631C560.656 289.631 560.223 290.056 560.223 290.581C560.223 291.105 560.656 291.531 561.19 291.531Z" stroke="white" stroke-width="5" stroke-miterlimit="10"/>
<path d="M551.217 260.283C552.108 260.283 552.83 259.575 552.83 258.7C552.83 257.826 552.108 257.117 551.217 257.117C550.327 257.117 549.605 257.826 549.605 258.7C549.605 259.575 550.327 260.283 551.217 260.283Z" stroke="white" stroke-width="5" stroke-miterlimit="10"/>
<path d="M508.849 265.608C509.384 265.608 509.817 265.182 509.817 264.658C509.817 264.133 509.384 263.708 508.849 263.708C508.315 263.708 507.882 264.133 507.882 264.658C507.882 265.182 508.315 265.608 508.849 265.608Z" stroke="white" stroke-width="5" stroke-miterlimit="10"/>
<path d="M509.817 295.201C510.351 295.201 510.784 294.775 510.784 294.251C510.784 293.726 510.351 293.301 509.817 293.301C509.283 293.301 508.849 293.726 508.849 294.251C508.849 294.775 509.283 295.201 509.817 295.201Z" stroke="white" stroke-width="5" stroke-miterlimit="10"/>
<path d="M386.001 105.39V127.677H376.058V105.077H327.435V127.677H317.492V105.39L327.834 95.2354H375.658L386.001 105.39Z" fill="#573240"/>
<path d="M382.003 127.677V105.389L371.659 95.2344H323.835L313.493 105.389V127.677H273.712L247.912 348.039H421.379V127.677H382.003ZM372.059 127.677H323.437V105.076H372.059V127.677Z" fill="#E87D00"/>
<path d="M452.467 348.038H421.378V127.676H426.667L452.467 348.038Z" fill="#573240"/>
<path d="M376.365 200.578C376.365 217.195 365.913 231.29 351.429 236.233V209.216C351.429 206.761 352.665 204.459 354.746 202.908C356.932 201.278 358.38 198.436 358.38 195.202C358.38 190.141 354.835 186.043 350.463 186.043C346.091 186.043 342.546 190.141 342.546 195.202C342.546 198.436 343.994 201.278 346.18 202.908C348.261 204.459 349.497 206.761 349.497 209.216V236.832C346.473 237.674 343.295 238.122 340.014 238.122C336.757 238.122 333.6 237.68 330.596 236.85V212.804C330.596 210.349 331.832 208.047 333.912 206.495C335.128 205.59 336.116 204.307 336.753 202.792C337.261 201.584 337.546 200.226 337.546 198.791V186.991C337.546 186.467 337.114 186.043 336.58 186.043H336.579C336.046 186.043 335.613 186.467 335.613 186.991V199.784C335.613 200.464 335.333 201.08 334.879 201.526C334.424 201.972 333.798 202.248 333.105 202.248C331.719 202.248 330.596 201.145 330.596 199.784V186.991C330.596 186.729 330.487 186.492 330.313 186.32C330.138 186.149 329.897 186.043 329.63 186.043C329.095 186.043 328.663 186.467 328.663 186.991V199.784C328.663 201.145 327.541 202.248 326.156 202.248H326.154C324.769 202.248 323.645 201.145 323.645 199.784V186.991C323.645 186.729 323.537 186.492 323.363 186.32C323.187 186.149 322.946 186.043 322.679 186.043C322.145 186.043 321.713 186.467 321.713 186.991V198.791C321.713 200.226 321.998 201.584 322.506 202.792C323.143 204.307 324.13 205.59 325.345 206.495C327.427 208.047 328.663 210.349 328.663 212.804V236.256C314.146 231.331 303.663 217.219 303.663 200.578C303.663 179.843 319.938 163.033 340.014 163.033C360.09 163.033 376.365 179.843 376.365 200.578Z" fill="white"/>
<path d="M313.493 105.263H382.002" stroke="#573240" stroke-width="5" stroke-miterlimit="10" stroke-linecap="round"/>
<path d="M468.919 309.756L454.913 282.137C451.639 275.681 444.927 271.601 437.581 271.601H346.547C339.202 271.601 332.49 275.681 329.216 282.137L315.209 309.756H468.919Z" fill="#F1B104" stroke="#573240" stroke-width="5" stroke-miterlimit="10" stroke-linecap="round"/>
<path d="M442.2 318.431C434.945 326.034 425.57 328.983 418.717 322.679C411.863 316.375 414.25 306.999 421.504 299.396C428.759 291.793 440.537 288.566 446.252 293.822C451.967 299.079 449.455 310.829 442.2 318.431Z" fill="white"/>
<path d="M438.523 312.424C439.466 307.696 436.327 303.113 431.511 302.187C426.695 301.261 422.027 304.343 421.083 309.071C420.14 313.799 423.279 318.383 428.095 319.309C432.911 320.235 437.58 317.153 438.523 312.424Z" fill="#F1B104"/>
<path d="M523.294 303.347C525.872 311.399 524.26 319.069 517 321.308C509.741 323.548 503.95 318.161 501.373 310.109C498.796 302.056 501.165 292.61 507.218 290.743C513.272 288.876 520.717 295.294 523.294 303.347Z" fill="white"/>
<path d="M517.932 313.851C520.744 311.09 520.744 306.615 517.932 303.854C515.121 301.094 510.562 301.094 507.751 303.854C504.939 306.615 504.939 311.09 507.751 313.851C510.562 316.611 515.121 316.611 517.932 313.851Z" fill="#F1B104"/>
<path d="M383.681 319.598L352.327 302.628C357.576 296.762 366.844 295.231 374.572 299.415C382.301 303.598 385.931 312.109 383.681 319.598Z" fill="#FF6E00"/>
<path d="M372.005 306.934C371.458 307.908 368.994 309.351 368.994 309.351C368.994 309.351 368.922 306.535 369.469 305.561C370.016 304.587 371.027 304.105 371.727 304.484C372.427 304.863 372.552 305.96 372.005 306.934Z" stroke="#573240" stroke-width="4" stroke-miterlimit="10" stroke-linecap="round" stroke-linejoin="round"/>
<path d="M375.188 311.898C374.064 312.039 371.424 310.936 371.424 310.936C371.424 310.936 373.698 309.218 374.822 309.078C375.946 308.937 376.938 309.454 377.04 310.233C377.141 311.012 376.312 311.757 375.188 311.898Z" stroke="#573240" stroke-width="4" stroke-miterlimit="10" stroke-linecap="round" stroke-linejoin="round"/>
<path d="M363.492 305.568C363.971 306.576 366.33 308.179 366.33 308.179C366.33 308.179 366.596 305.374 366.117 304.366C365.638 303.358 364.663 302.81 363.938 303.142C363.213 303.474 363.014 304.56 363.492 305.568Z" stroke="#573240" stroke-width="4" stroke-miterlimit="10" stroke-linecap="round" stroke-linejoin="round"/>
<path d="M469.241 313.727L495.231 291.909C498.767 298.573 497.015 307.285 490.608 312.663C484.202 318.041 475.263 318.304 469.241 313.727Z" fill="#FF6E00"/>
<path d="M484.667 307.795C483.97 306.976 483.498 304.301 483.498 304.301C483.498 304.301 486.073 305.211 486.77 306.031C487.467 306.85 487.561 307.91 486.981 308.397C486.4 308.885 485.364 308.615 484.667 307.795Z" stroke="#573240" stroke-width="4" stroke-miterlimit="10" stroke-linecap="round" stroke-linejoin="round"/>
<path d="M479.091 308.89C479.344 307.849 481.237 305.899 481.237 305.899C481.237 305.899 482.023 308.501 481.77 309.542C481.517 310.583 480.712 311.281 479.972 311.101C479.233 310.921 478.838 309.931 479.091 308.89Z" stroke="#573240" stroke-width="4" stroke-miterlimit="10" stroke-linecap="round" stroke-linejoin="round"/>
<path d="M488.787 300.752C487.711 300.826 485.46 302.354 485.46 302.354C485.46 302.354 487.911 303.559 488.986 303.485C490.061 303.411 490.888 302.739 490.833 301.984C490.778 301.23 489.862 300.678 488.787 300.752Z" stroke="#573240" stroke-width="4" stroke-miterlimit="10" stroke-linecap="round" stroke-linejoin="round"/>
<path d="M423.918 314.203C423.918 314.203 413.945 309.715 414.4 296.43C414.855 283.145 426.946 278.902 429.206 283.056C430.691 285.787 428.949 289.18 424.107 290.937C418.623 292.926 415.362 294.586 416.154 300.918C416.87 306.64 419.568 310.966 423.918 314.203Z" fill="#A9D8D5"/>
<path d="M423.918 314.204C423.918 314.204 412.433 306.585 416.696 294.169C420.244 283.835 427.292 284.742 427.292 284.742" stroke="#573240" stroke-width="4" stroke-miterlimit="10" stroke-linecap="round" stroke-linejoin="round"/>
<path d="M418.523 290.216C419.262 289.189 419.924 287.482 419.575 285.465" stroke="#573240" stroke-width="4" stroke-miterlimit="10" stroke-linecap="round" stroke-linejoin="round"/>
<path d="M400.695 318.384C406.533 318.384 411.265 313.738 411.265 308.007C411.265 302.277 406.533 297.631 400.695 297.631C394.858 297.631 390.126 302.277 390.126 308.007C390.126 313.738 394.858 318.384 400.695 318.384Z" fill="#A9D8D5"/>
<path d="M402.278 304.026C402.176 304.795 400.952 306.345 400.952 306.345C400.952 306.345 400.176 304.537 400.278 303.769C400.381 303.001 400.912 302.436 401.464 302.507C402.016 302.578 402.381 303.258 402.278 304.026Z" stroke="#573240" stroke-width="4" stroke-miterlimit="10" stroke-linecap="round" stroke-linejoin="round"/>
<path d="M399.163 312.126C399.266 311.358 400.49 309.808 400.49 309.808C400.49 309.808 401.265 311.615 401.163 312.384C401.06 313.152 400.529 313.717 399.977 313.646C399.425 313.575 399.06 312.894 399.163 312.126Z" stroke="#573240" stroke-width="4" stroke-miterlimit="10" stroke-linecap="round" stroke-linejoin="round"/>
<path d="M396.595 306.547C397.378 306.648 398.957 307.85 398.957 307.85C398.957 307.85 397.116 308.611 396.333 308.511C395.551 308.41 394.975 307.889 395.048 307.347C395.12 306.804 395.813 306.447 396.595 306.547Z" stroke="#573240" stroke-width="4" stroke-miterlimit="10" stroke-linecap="round" stroke-linejoin="round"/>
<path d="M404.846 309.606C404.064 309.506 402.484 308.304 402.484 308.304C402.484 308.304 404.326 307.542 405.108 307.643C405.89 307.744 406.466 308.265 406.393 308.807C406.321 309.349 405.628 309.707 404.846 309.606Z" stroke="#573240" stroke-width="4" stroke-miterlimit="10" stroke-linecap="round" stroke-linejoin="round"/>
<path d="M329.707 316.577C333.174 316.577 335.985 313.817 335.985 310.413C335.985 307.009 333.174 304.249 329.707 304.249C326.239 304.249 323.428 307.009 323.428 310.413C323.428 313.817 326.239 316.577 329.707 316.577Z" fill="white"/>
<path d="M352.55 309.775C349.974 309.691 347.109 308.942 343.902 307.843C331.114 303.456 331.192 292.062 335.28 291.101C338.479 290.348 340.883 293.323 341.147 298.387C341.448 304.122 342.52 308.18 348.916 309.325C350.133 309.542 351.349 309.697 352.55 309.775Z" fill="#A9D8D5"/>
<path d="M354.356 309.802C350.723 309.999 346.535 309.274 342.437 306.45C335.701 301.808 335.978 293.285 335.978 293.285" stroke="#573240" stroke-width="4" stroke-miterlimit="10" stroke-linecap="round" stroke-linejoin="round"/>
<path d="M353.474 309.647C353.947 309.723 346.284 309.037 344.191 302.485C342.633 297.609 346.491 296.479 348.038 298.013C349.763 299.723 348.421 304.413 350.61 307.525C351.245 308.427 351.158 309.274 353.474 309.647Z" fill="#A9D8D5"/>
<path d="M346.638 299.456C346.638 299.456 345.511 307.734 354.356 309.802" stroke="#573240" stroke-width="4" stroke-miterlimit="10" stroke-linecap="round" stroke-linejoin="round"/>
<path d="M462.664 309.965C462.103 310.078 461.611 310.053 461.17 309.925C465.31 308.087 466.696 304.096 467.683 298.886C468.842 292.769 472.36 289.515 476.276 290.915C481.28 292.702 479.522 306.566 462.664 309.965Z" fill="#A9D8D5"/>
<path d="M447.27 311.801C451.876 312.242 460.016 311.584 465.393 308.351C474.229 303.039 474.243 293.507 474.243 293.507" stroke="#573240" stroke-width="4" stroke-miterlimit="10" stroke-linecap="round" stroke-linejoin="round"/>
<path d="M448.4 311.66C447.793 311.727 457.575 311.308 460.624 303.401C462.893 297.516 458.055 295.921 455.998 297.714C453.704 299.714 455.132 305.53 452.165 309.219C451.305 310.288 451.365 311.33 448.4 311.66Z" fill="#A9D8D5"/>
<path d="M457.692 299.559C457.692 299.559 458.635 309.755 447.27 311.801" stroke="#573240" stroke-width="4" stroke-miterlimit="10" stroke-linecap="round" stroke-linejoin="round"/>
<path d="M530.969 309.756L516.962 282.137C513.688 275.681 506.976 271.601 499.631 271.601H437.582C444.927 271.601 451.639 275.681 454.913 282.137L468.919 309.756H530.969Z" stroke="#573240" stroke-width="5" stroke-miterlimit="10" stroke-linecap="round"/>
<path d="M468.919 309.756L454.913 282.137C451.639 275.681 444.927 271.601 437.581 271.601H346.547C339.202 271.601 332.49 275.681 329.216 282.137L315.209 309.756H468.919Z" stroke="#573240" stroke-width="5" stroke-miterlimit="10" stroke-linecap="round"/>
<path d="M409.399 271.601H364.788V292.617H409.399V271.601Z" fill="#573240"/>
<path d="M468.919 309.883L454.911 337.503C451.638 343.958 444.926 348.038 437.581 348.038H346.546C339.201 348.038 332.489 343.958 329.216 337.503L315.208 309.883H468.919Z" fill="white"/>
<path d="M530.968 309.756L516.961 337.376C513.687 343.831 506.975 347.912 499.63 347.912H437.581C444.926 347.912 451.638 343.831 454.912 337.376L468.919 309.756H530.968Z" fill="white"/>
<path d="M530.967 309.756L516.961 337.376C513.687 343.831 506.975 347.911 499.629 347.911H346.546C339.201 347.911 332.489 343.831 329.215 337.376L315.208 309.756H530.967Z" fill="white"/>
<path d="M516.961 337.377C513.687 343.832 506.975 347.913 499.63 347.913H437.581C444.926 347.913 451.638 343.832 454.912 337.377L468.919 309.757" stroke="#573240" stroke-width="5" stroke-miterlimit="10" stroke-linecap="round"/>
<path d="M468.919 309.757L454.912 337.377C451.638 343.832 444.926 347.913 437.581 347.913H342.677" stroke="#573240" stroke-width="5" stroke-miterlimit="10" stroke-linecap="round"/>
<path d="M310.777 309.883H535.4" stroke="#573240" stroke-width="5" stroke-miterlimit="10" stroke-linecap="round"/>
<path d="M391.036 285.206H387.197V281.437C387.197 277.524 390.427 274.353 394.412 274.353H398.252V278.122C398.252 282.034 395.021 285.206 391.036 285.206Z" stroke="#A9D8D5" stroke-width="4" stroke-miterlimit="10"/>
<path d="M398.252 274.353L384.657 287.7" stroke="#A9D8D5" stroke-width="4" stroke-miterlimit="10"/>
<path d="M394.133 274.479V278.396H398.122" stroke="#A9D8D5" stroke-width="4" stroke-miterlimit="10"/>
<path d="M390.349 275.644V282.111H396.936" stroke="#A9D8D5" stroke-width="4" stroke-miterlimit="10"/>
<path d="M383.949 285.48H384.957V284.491C384.957 280.578 381.726 277.406 377.741 277.406H376.733V278.396C376.733 282.308 379.964 285.48 383.949 285.48Z" stroke="#A9D8D5" stroke-width="4" stroke-miterlimit="10"/>
<path d="M376.733 277.406L385.938 286.443" stroke="#A9D8D5" stroke-width="4" stroke-miterlimit="10"/>
<path d="M381.967 278.746V282.544H378.098" stroke="#A9D8D5" stroke-width="4" stroke-miterlimit="10"/>
<path d="M484.927 243.091L475.02 262.627C472.335 267.922 466.83 271.269 460.806 271.269H434.543C440.567 271.269 446.072 267.922 448.757 262.627L458.664 243.091H484.927Z" fill="#573240"/>
<path d="M458.664 243.091L457.611 245.168L448.757 262.627C446.072 267.922 440.567 271.269 434.543 271.269H396.91C390.886 271.269 385.381 267.922 382.696 262.627L373.843 245.168L372.789 243.091H458.664Z" fill="#FF6E00"/>
<path d="M458.664 243.091L457.116 246.177H374.38L372.789 243.091H458.664Z" fill="#573240"/>
<path d="M488.64 243.091L476.732 219.61C473.948 214.123 468.242 210.653 461.998 210.653H434.727C440.972 210.653 446.678 214.123 449.461 219.61L461.369 243.091H488.64Z" fill="#FCD4D0"/>
<path d="M461.369 243.091L449.461 219.61C446.678 214.123 440.972 210.653 434.727 210.653H395.719C389.474 210.653 383.768 214.123 380.985 219.61L369.077 243.091H461.369Z" fill="white"/>
<path d="M256.776 219.255L247.997 294.25H128.414L137.421 217.313H255.012C256.073 217.312 256.897 218.22 256.776 219.255Z" fill="#F6ACC1"/>
<path d="M238.724 217.312C237.305 217.312 236.112 218.357 235.95 219.741L235.043 227.491C234.335 233.538 229.12 238.103 222.92 238.103H127.903C120.612 238.103 114.947 231.867 115.78 224.755L116.434 219.171C116.558 218.112 117.471 217.312 118.557 217.312H238.724Z" fill="#FCD4D0"/>
<path d="M201.71 346.237C222.275 346.237 238.946 329.547 238.946 308.958C238.946 288.369 222.275 271.679 201.71 271.679C181.145 271.679 164.474 288.369 164.474 308.958C164.474 329.547 181.145 346.237 201.71 346.237Z" fill="#573240"/>
<path d="M195.131 271.678C174.566 271.678 157.894 288.369 157.894 308.957C157.894 329.546 174.566 346.236 195.131 346.236C215.696 346.236 232.367 329.546 232.367 308.957C232.367 288.369 215.696 271.678 195.131 271.678ZM195.131 321.785C188.208 321.785 182.596 316.166 182.596 309.236C182.596 302.305 188.208 296.686 195.131 296.686C202.053 296.686 207.666 302.305 207.666 309.236C207.666 316.166 202.053 321.785 195.131 321.785Z" fill="#A9D8D5"/>
<path d="M200.629 278.263H197.45C197.096 278.263 196.808 277.981 196.808 277.632V277.589C196.808 277.241 197.096 276.959 197.45 276.959H200.629C200.984 276.959 201.271 277.241 201.271 277.589V277.632C201.271 277.98 200.984 278.263 200.629 278.263Z" fill="white"/>
<path d="M205.752 291.601H202.573C202.219 291.601 201.931 291.318 201.931 290.97V290.927C201.931 290.579 202.219 290.297 202.573 290.297H205.752C206.107 290.297 206.394 290.579 206.394 290.927V290.97C206.394 291.318 206.107 291.601 205.752 291.601Z" fill="#573240"/>
<path d="M179.23 283.647L176.542 285.313C176.242 285.499 175.846 285.411 175.656 285.117L175.633 285.08C175.444 284.786 175.533 284.397 175.833 284.211L178.521 282.545C178.82 282.359 179.217 282.447 179.406 282.741L179.43 282.778C179.619 283.072 179.529 283.461 179.23 283.647Z" fill="white"/>
<path d="M220.625 289.997L218.89 292.612C218.697 292.904 218.299 292.986 218.002 292.796L217.965 292.773C217.668 292.583 217.584 292.192 217.778 291.901L219.512 289.285C219.706 288.994 220.103 288.911 220.4 289.101L220.437 289.125C220.734 289.315 220.818 289.705 220.625 289.997Z" fill="white"/>
<path d="M194.048 289.624L191.361 291.29C191.061 291.476 190.664 291.388 190.475 291.093L190.452 291.057C190.262 290.763 190.352 290.373 190.652 290.187L193.339 288.521C193.639 288.335 194.036 288.423 194.225 288.718L194.248 288.754C194.438 289.049 194.348 289.438 194.048 289.624Z" fill="white"/>
<path d="M187.271 280.963L185.418 278.427C185.212 278.144 185.278 277.75 185.566 277.548L185.602 277.523C185.89 277.32 186.291 277.384 186.498 277.667L188.351 280.203C188.557 280.486 188.491 280.88 188.203 281.082L188.167 281.108C187.879 281.31 187.478 281.246 187.271 280.963Z" fill="#573240"/>
<path d="M213.002 290.686L211.149 288.15C210.942 287.867 211.008 287.473 211.296 287.27L211.332 287.245C211.62 287.042 212.021 287.107 212.228 287.39L214.081 289.926C214.287 290.208 214.222 290.602 213.933 290.805L213.898 290.83C213.61 291.033 213.208 290.968 213.002 290.686Z" fill="#FF6E00"/>
<path d="M173.071 291.671L170.6 289.709C170.324 289.49 170.282 289.093 170.505 288.822L170.532 288.789C170.755 288.518 171.159 288.476 171.435 288.695L173.907 290.657C174.182 290.876 174.225 291.273 174.002 291.544L173.974 291.577C173.751 291.848 173.347 291.89 173.071 291.671Z" fill="#FF6E00"/>
<path d="M211.413 282.799L208.941 280.837C208.666 280.618 208.623 280.221 208.846 279.95L208.874 279.917C209.097 279.646 209.501 279.604 209.777 279.823L212.248 281.785C212.524 282.004 212.566 282.401 212.343 282.672L212.316 282.705C212.093 282.976 211.689 283.018 211.413 282.799Z" fill="white"/>
<path d="M182.355 290.914L182.896 287.839C182.957 287.496 183.289 287.265 183.638 287.325L183.682 287.332C184.031 287.391 184.265 287.717 184.205 288.061L183.664 291.136C183.603 291.479 183.271 291.709 182.922 291.649L182.879 291.642C182.529 291.583 182.295 291.257 182.355 290.914Z" fill="#F1B104"/>
<path d="M178.497 301.787L179.038 298.712C179.099 298.369 179.431 298.139 179.78 298.198L179.824 298.205C180.173 298.264 180.407 298.59 180.347 298.934L179.806 302.009C179.745 302.352 179.413 302.582 179.064 302.522L179.021 302.515C178.671 302.456 178.437 302.13 178.497 301.787Z" fill="#F1B104"/>
<path d="M192.776 283.467L195.273 281.536C195.551 281.32 195.955 281.367 196.174 281.641L196.202 281.675C196.421 281.948 196.373 282.344 196.095 282.56L193.598 284.491C193.319 284.707 192.916 284.66 192.696 284.386L192.669 284.352C192.45 284.079 192.497 283.683 192.776 283.467Z" fill="#FF6E00"/>
<path d="M202.751 284.892L203.292 281.817C203.352 281.474 203.684 281.244 204.034 281.303L204.077 281.311C204.427 281.37 204.661 281.696 204.6 282.039L204.059 285.114C203.999 285.457 203.667 285.687 203.317 285.628L203.274 285.621C202.925 285.561 202.69 285.235 202.751 284.892Z" fill="#F1B104"/>
<path d="M217.597 328.897L219.488 326.388C219.699 326.108 220.101 326.049 220.386 326.256L220.422 326.282C220.707 326.489 220.767 326.884 220.556 327.164L218.665 329.672C218.454 329.952 218.052 330.011 217.767 329.804L217.732 329.778C217.447 329.571 217.386 329.177 217.597 328.897Z" fill="white"/>
<path d="M205.109 324.139L207 321.63C207.211 321.351 207.613 321.292 207.898 321.499L207.933 321.524C208.218 321.731 208.278 322.126 208.068 322.406L206.177 324.914C205.966 325.194 205.564 325.253 205.279 325.046L205.243 325.021C204.958 324.813 204.898 324.419 205.109 324.139Z" fill="#573240"/>
<path d="M225.919 308.806L226.154 305.694C226.18 305.347 226.488 305.086 226.842 305.112L226.885 305.115C227.239 305.141 227.505 305.443 227.478 305.79L227.244 308.903C227.218 309.25 226.91 309.51 226.556 309.485L226.512 309.482C226.159 309.456 225.893 309.153 225.919 308.806Z" fill="white"/>
<path d="M208.394 299.008L208.628 295.896C208.654 295.549 208.962 295.289 209.316 295.314L209.36 295.317C209.713 295.343 209.979 295.645 209.953 295.993L209.718 299.105C209.692 299.452 209.384 299.713 209.03 299.687L208.986 299.684C208.633 299.658 208.367 299.356 208.394 299.008Z" fill="white"/>
<path d="M197.958 339.751L196.849 336.826C196.725 336.5 196.894 336.137 197.226 336.016L197.267 336.001C197.6 335.879 197.969 336.045 198.093 336.371L199.202 339.296C199.326 339.622 199.157 339.985 198.825 340.107L198.784 340.122C198.451 340.243 198.082 340.077 197.958 339.751Z" fill="white"/>
<path d="M212.211 316.945L212.445 313.833C212.472 313.486 212.779 313.225 213.133 313.251L213.177 313.254C213.53 313.28 213.796 313.582 213.77 313.929L213.535 317.041C213.509 317.388 213.201 317.649 212.847 317.623L212.804 317.62C212.45 317.594 212.185 317.292 212.211 316.945Z" fill="white"/>
<path d="M223.333 316.749L226.511 316.795C226.866 316.8 227.149 317.087 227.144 317.435L227.143 317.478C227.138 317.826 226.846 318.104 226.492 318.099L223.313 318.053C222.959 318.047 222.676 317.761 222.681 317.413L222.682 317.37C222.687 317.022 222.978 316.744 223.333 316.749Z" fill="#573240"/>
<path d="M192.642 327.356L195.82 327.402C196.174 327.407 196.458 327.693 196.452 328.041L196.452 328.084C196.447 328.432 196.155 328.71 195.8 328.705L192.622 328.659C192.268 328.654 191.984 328.368 191.99 328.02L191.99 327.977C191.996 327.628 192.287 327.35 192.642 327.356Z" fill="#573240"/>
<path d="M200.066 331.271L203.245 331.317C203.599 331.322 203.882 331.608 203.877 331.956L203.876 331.999C203.871 332.347 203.579 332.625 203.225 332.62L200.047 332.574C199.692 332.569 199.409 332.283 199.414 331.935L199.415 331.891C199.42 331.543 199.712 331.265 200.066 331.271Z" fill="#FF6E00"/>
<path d="M223.013 299.172L226.089 298.389C226.433 298.302 226.783 298.504 226.872 298.841L226.883 298.883C226.972 299.22 226.766 299.564 226.423 299.652L223.346 300.435C223.002 300.522 222.652 300.319 222.563 299.982L222.552 299.941C222.463 299.604 222.669 299.26 223.013 299.172Z" fill="#FF6E00"/>
<path d="M212.224 302.748L215.301 301.965C215.644 301.877 215.994 302.08 216.084 302.417L216.094 302.458C216.183 302.795 215.977 303.139 215.634 303.227L212.557 304.01C212.214 304.097 211.864 303.895 211.775 303.558L211.764 303.516C211.675 303.179 211.881 302.835 212.224 302.748Z" fill="#FF6E00"/>
<path d="M207.468 334.709L210.545 333.926C210.888 333.838 211.239 334.041 211.328 334.378L211.339 334.419C211.428 334.756 211.222 335.1 210.878 335.188L207.801 335.971C207.458 336.058 207.108 335.856 207.019 335.519L207.008 335.477C206.919 335.14 207.125 334.796 207.468 334.709Z" fill="white"/>
<path d="M218.111 306.95L220.306 309.206C220.551 309.458 220.542 309.857 220.285 310.097L220.254 310.127C219.997 310.368 219.591 310.358 219.346 310.107L217.15 307.85C216.905 307.599 216.915 307.2 217.171 306.959L217.203 306.93C217.459 306.689 217.866 306.698 218.111 306.95Z" fill="#F1B104"/>
<path d="M218.008 319.603L218.104 322.723C218.115 323.071 217.837 323.361 217.482 323.372L217.438 323.373C217.084 323.384 216.788 323.11 216.777 322.762L216.681 319.643C216.67 319.295 216.949 319.004 217.303 318.994L217.347 318.992C217.702 318.982 217.998 319.255 218.008 319.603Z" fill="#FF6E00"/>
<path d="M210.908 326.627L213.104 328.884C213.349 329.136 213.339 329.535 213.083 329.775L213.051 329.805C212.795 330.045 212.389 330.036 212.144 329.785L209.948 327.528C209.703 327.276 209.712 326.877 209.969 326.637L210 326.607C210.257 326.367 210.663 326.376 210.908 326.627Z" fill="#F1B104"/>
<path d="M166.78 318.296L168.18 321.098C168.336 321.411 168.204 321.788 167.886 321.942L167.847 321.961C167.528 322.114 167.144 321.985 166.987 321.672L165.588 318.87C165.432 318.558 165.563 318.18 165.882 318.027L165.921 318.008C166.24 317.855 166.624 317.984 166.78 318.296Z" fill="white"/>
<path d="M176.826 309.596L178.225 312.398C178.381 312.711 178.25 313.088 177.932 313.241L177.892 313.26C177.574 313.414 177.189 313.285 177.033 312.972L175.633 310.17C175.477 309.858 175.609 309.48 175.927 309.327L175.967 309.308C176.285 309.154 176.67 309.283 176.826 309.596Z" fill="#573240"/>
<path d="M181.126 334.789L183.833 336.424C184.135 336.607 184.229 336.995 184.043 337.292L184.021 337.328C183.835 337.625 183.439 337.717 183.137 337.535L180.43 335.899C180.128 335.717 180.034 335.328 180.22 335.032L180.243 334.995C180.429 334.699 180.824 334.606 181.126 334.789Z" fill="white"/>
<path d="M167.049 295.962L170.204 296.339C170.556 296.381 170.807 296.696 170.764 297.041L170.758 297.084C170.716 297.43 170.395 297.675 170.044 297.633L166.888 297.256C166.536 297.214 166.286 296.899 166.329 296.554L166.334 296.511C166.377 296.166 166.697 295.92 167.049 295.962Z" fill="white"/>
<path d="M180.067 319.095L182.774 320.73C183.076 320.913 183.17 321.301 182.985 321.597L182.962 321.634C182.776 321.931 182.38 322.023 182.078 321.841L179.371 320.205C179.069 320.022 178.975 319.634 179.161 319.338L179.184 319.301C179.37 319.005 179.765 318.912 180.067 319.095Z" fill="white"/>
<path d="M175.131 328.882L173.628 331.631C173.46 331.938 173.071 332.053 172.758 331.889L172.72 331.868C172.407 331.704 172.29 331.321 172.458 331.015L173.961 328.265C174.128 327.958 174.517 327.843 174.83 328.008L174.869 328.028C175.181 328.193 175.298 328.575 175.131 328.882Z" fill="#573240"/>
<path d="M172.693 301.92L171.19 304.669C171.023 304.976 170.634 305.091 170.321 304.927L170.282 304.906C169.97 304.742 169.853 304.36 170.02 304.053L171.523 301.303C171.691 300.996 172.08 300.881 172.393 301.046L172.431 301.066C172.744 301.231 172.861 301.613 172.693 301.92Z" fill="#FF6E00"/>
<path d="M191.176 336.684L190.47 339.727C190.391 340.066 190.047 340.279 189.701 340.201L189.658 340.192C189.312 340.114 189.096 339.776 189.175 339.437L189.881 336.395C189.96 336.055 190.304 335.843 190.65 335.92L190.693 335.93C191.039 336.007 191.255 336.345 191.176 336.684Z" fill="#FF6E00"/>
<path d="M165.296 305.921L164.59 308.963C164.511 309.303 164.167 309.515 163.821 309.438L163.778 309.428C163.433 309.351 163.216 309.013 163.295 308.674L164.002 305.631C164.08 305.292 164.425 305.079 164.77 305.157L164.813 305.166C165.159 305.244 165.375 305.581 165.296 305.921Z" fill="white"/>
<path d="M186.395 328.834L183.345 329.711C183.005 329.809 182.648 329.618 182.548 329.284L182.536 329.242C182.436 328.908 182.631 328.558 182.972 328.46L186.022 327.583C186.363 327.485 186.719 327.677 186.819 328.011L186.831 328.052C186.931 328.387 186.736 328.737 186.395 328.834Z" fill="#F1B104"/>
<path d="M174.997 322.927L172.131 321.576C171.812 321.426 171.677 321.049 171.83 320.735L171.849 320.697C172.003 320.383 172.386 320.25 172.706 320.401L175.572 321.751C175.891 321.902 176.026 322.279 175.873 322.592L175.854 322.631C175.7 322.945 175.317 323.077 174.997 322.927Z" fill="#FF6E00"/>
<path d="M172.153 312.073L167.871 313.304L168.244 314.555L172.527 313.324L172.153 312.073Z" fill="#F1B104"/>
<path d="M117.965 254.497C96.4064 254.497 78.9294 271.995 78.9294 293.577C78.9294 315.161 96.4064 332.659 117.965 332.659C139.523 332.659 157 315.161 157 293.577C157 271.995 139.523 254.497 117.965 254.497ZM117.965 305.711C111.433 305.711 106.137 300.41 106.137 293.87C106.137 287.33 111.433 282.028 117.965 282.028C124.498 282.028 129.793 287.33 129.793 293.87C129.793 300.41 124.498 305.711 117.965 305.711Z" fill="#573240"/>
<path d="M112.676 254.497C91.1175 254.497 73.6406 271.995 73.6406 293.577C73.6406 315.161 91.1175 332.659 112.676 332.659C134.234 332.659 151.711 315.161 151.711 293.577C151.711 271.995 134.234 254.497 112.676 254.497ZM112.676 307.025C105.42 307.025 99.5361 301.136 99.5361 293.87C99.5361 286.604 105.42 280.714 112.676 280.714C119.934 280.714 125.817 286.604 125.817 293.87C125.817 301.136 119.934 307.025 112.676 307.025Z" fill="#FF6E00"/>
<path d="M117.864 262.548H114.38C114.025 262.548 113.738 262.266 113.738 261.918V261.786C113.738 261.437 114.025 261.155 114.38 261.155H117.864C118.219 261.155 118.506 261.437 118.506 261.786V261.918C118.506 262.266 118.219 262.548 117.864 262.548Z" fill="white"/>
<path d="M138.449 291.43H134.965C134.61 291.43 134.323 291.148 134.323 290.8V290.667C134.323 290.319 134.61 290.037 134.965 290.037H138.449C138.804 290.037 139.091 290.319 139.091 290.667V290.8C139.091 291.148 138.804 291.43 138.449 291.43Z" fill="#A9D8D5"/>
<path d="M146.31 287.211L142.966 288.171C142.625 288.268 142.269 288.077 142.169 287.742L142.132 287.615C142.032 287.281 142.227 286.931 142.568 286.833L145.912 285.874C146.253 285.776 146.609 285.968 146.709 286.302L146.747 286.429C146.846 286.764 146.651 287.114 146.31 287.211Z" fill="#573240"/>
<path d="M94.9357 290.184H91.4511C91.0965 290.184 90.8091 289.902 90.8091 289.554V289.421C90.8091 289.073 91.0965 288.791 91.4511 288.791H94.9357C95.2903 288.791 95.5777 289.073 95.5777 289.421V289.554C95.5777 289.902 95.2903 290.184 94.9357 290.184Z" fill="white"/>
<path d="M132.718 285.969L129.367 285.033C129.026 284.938 128.828 284.589 128.925 284.254L128.962 284.127C129.059 283.792 129.414 283.598 129.755 283.693L133.107 284.629C133.448 284.724 133.646 285.073 133.549 285.408L133.512 285.535C133.415 285.87 133.059 286.064 132.718 285.969Z" fill="#F1B104"/>
<path d="M84.4064 280.714H80.9218C80.5672 280.714 80.2798 280.432 80.2798 280.084V279.952C80.2798 279.603 80.5672 279.321 80.9218 279.321H84.4064C84.761 279.321 85.0484 279.603 85.0484 279.952V280.084C85.0483 280.432 84.7609 280.714 84.4064 280.714Z" fill="#F1B104"/>
<path d="M121.64 275.833H118.156C117.801 275.833 117.514 275.55 117.514 275.202V275.07C117.514 274.722 117.801 274.439 118.156 274.439H121.64C121.995 274.439 122.282 274.722 122.282 275.07V275.202C122.282 275.55 121.995 275.833 121.64 275.833Z" fill="#573240"/>
<path d="M138.333 272.289L135.315 270.578C135.008 270.404 134.903 270.019 135.08 269.717L135.147 269.602C135.325 269.301 135.717 269.198 136.025 269.372L139.042 271.082C139.349 271.256 139.455 271.642 139.277 271.943L139.21 272.058C139.033 272.36 138.64 272.463 138.333 272.289Z" fill="#F6ACC1"/>
<path d="M96.8366 268.653L93.8905 270.48C93.5907 270.666 93.1941 270.578 93.0049 270.283L92.9328 270.171C92.7434 269.877 92.833 269.488 93.1328 269.302L96.079 267.475C96.3788 267.289 96.7754 267.377 96.9646 267.672L97.0367 267.784C97.2261 268.078 97.1364 268.468 96.8366 268.653Z" fill="white"/>
<path d="M140.843 277.56L138.942 280.427C138.748 280.719 138.351 280.801 138.054 280.611L137.94 280.539C137.643 280.349 137.559 279.959 137.753 279.667L139.654 276.8C139.848 276.508 140.245 276.426 140.543 276.616L140.656 276.688C140.953 276.878 141.037 277.269 140.843 277.56Z" fill="white"/>
<path d="M112.204 276.019L109.258 277.845C108.958 278.031 108.561 277.943 108.372 277.649L108.3 277.537C108.111 277.242 108.2 276.853 108.5 276.667L111.446 274.841C111.746 274.655 112.143 274.743 112.332 275.037L112.404 275.149C112.593 275.443 112.504 275.833 112.204 276.019Z" fill="white"/>
<path d="M102.461 275.446L101.257 272.236C101.134 271.909 101.304 271.547 101.637 271.427L101.764 271.381C102.096 271.261 102.465 271.428 102.588 271.754L103.793 274.964C103.915 275.291 103.745 275.653 103.412 275.774L103.286 275.82C102.953 275.94 102.584 275.773 102.461 275.446Z" fill="#F1B104"/>
<path d="M103.573 265.468L101.542 262.688C101.335 262.406 101.401 262.012 101.689 261.809L101.799 261.731C102.087 261.529 102.488 261.593 102.695 261.876L104.726 264.656C104.932 264.939 104.867 265.333 104.578 265.536L104.469 265.613C104.181 265.816 103.779 265.751 103.573 265.468Z" fill="#573240"/>
<path d="M133.129 277.629L131.097 274.849C130.891 274.567 130.957 274.173 131.245 273.97L131.355 273.893C131.643 273.69 132.044 273.754 132.25 274.037L134.282 276.817C134.488 277.1 134.422 277.494 134.134 277.697L134.025 277.774C133.736 277.977 133.335 277.912 133.129 277.629Z" fill="#573240"/>
<path d="M88.408 275.802L85.6987 273.65C85.4231 273.431 85.3804 273.034 85.6033 272.764L85.6881 272.661C85.9112 272.39 86.3154 272.348 86.591 272.567L89.3003 274.718C89.576 274.937 89.6187 275.334 89.3958 275.605L89.3109 275.708C89.088 275.978 88.6837 276.02 88.408 275.802Z" fill="#A9D8D5"/>
<path d="M129.378 267.423L126.668 265.271C126.393 265.052 126.35 264.656 126.573 264.385L126.658 264.282C126.881 264.011 127.285 263.969 127.561 264.188L130.27 266.339C130.546 266.558 130.589 266.955 130.366 267.226L130.281 267.329C130.058 267.6 129.653 267.642 129.378 267.423Z" fill="#F1B104"/>
<path d="M82.456 290.483L80.2994 287.796C80.0799 287.522 80.1278 287.126 80.4063 286.911L80.5123 286.829C80.7909 286.613 81.1945 286.66 81.4141 286.934L83.5707 289.621C83.7901 289.894 83.7423 290.29 83.4637 290.506L83.3577 290.588C83.0791 290.803 82.6754 290.756 82.456 290.483Z" fill="#A9D8D5"/>
<path d="M94.5656 279.795L95.1589 276.423C95.2193 276.081 95.5514 275.85 95.9009 275.91L96.0339 275.932C96.3833 275.992 96.6176 276.318 96.5572 276.661L95.964 280.032C95.9036 280.375 95.5714 280.605 95.222 280.546L95.089 280.523C94.7395 280.464 94.5053 280.137 94.5656 279.795Z" fill="#F6ACC1"/>
<path d="M108.016 269.489L110.753 267.372C111.032 267.156 111.435 267.203 111.655 267.477L111.738 267.581C111.958 267.854 111.91 268.25 111.631 268.466L108.894 270.583C108.616 270.799 108.212 270.752 107.993 270.478L107.909 270.374C107.69 270.101 107.738 269.704 108.016 269.489Z" fill="#A9D8D5"/>
<path d="M86.7249 285.074L89.4618 282.957C89.7403 282.741 90.1439 282.788 90.3635 283.062L90.447 283.166C90.6664 283.439 90.6185 283.835 90.34 284.051L87.6031 286.168C87.3246 286.384 86.921 286.337 86.7014 286.063L86.618 285.959C86.3985 285.686 86.4464 285.289 86.7249 285.074Z" fill="#573240"/>
<path d="M120.08 269.674L120.673 266.303C120.733 265.96 121.066 265.73 121.415 265.79L121.548 265.812C121.898 265.871 122.132 266.198 122.071 266.541L121.478 269.912C121.418 270.255 121.086 270.485 120.736 270.425L120.603 270.403C120.254 270.344 120.019 270.018 120.08 269.674Z" fill="#F6ACC1"/>
<path d="M124.189 280.127L126.508 277.574C126.744 277.314 127.15 277.292 127.415 277.523L127.516 277.611C127.78 277.843 127.803 278.242 127.567 278.501L125.248 281.054C125.012 281.314 124.606 281.337 124.341 281.105L124.241 281.017C123.976 280.785 123.953 280.387 124.189 280.127Z" fill="#A9D8D5"/>
<path d="M108.033 325.231L111.517 325.283C111.871 325.288 112.155 325.575 112.149 325.923L112.147 326.055C112.142 326.403 111.85 326.681 111.495 326.676L108.011 326.623C107.657 326.618 107.374 326.332 107.379 325.984L107.381 325.851C107.387 325.503 107.679 325.225 108.033 325.231Z" fill="white"/>
<path d="M87.899 296.044L91.383 296.096C91.7375 296.102 92.0205 296.388 92.0151 296.736L92.0131 296.868C92.0076 297.217 91.7158 297.494 91.3613 297.489L87.8773 297.437C87.5228 297.432 87.2398 297.145 87.2452 296.797L87.2473 296.665C87.2526 296.317 87.5444 296.039 87.899 296.044Z" fill="#A9D8D5"/>
<path d="M79.973 300.144L83.3322 299.235C83.674 299.142 84.0275 299.339 84.1218 299.675L84.1576 299.803C84.2519 300.138 84.0512 300.485 83.7093 300.578L80.3502 301.487C80.0083 301.58 79.6549 301.383 79.5606 301.047L79.5247 300.919C79.4305 300.584 79.6312 300.237 79.973 300.144Z" fill="#573240"/>
<path d="M131.388 297.941L134.872 297.994C135.227 297.999 135.51 298.285 135.504 298.633L135.502 298.766C135.497 299.114 135.205 299.392 134.85 299.387L131.366 299.334C131.012 299.329 130.729 299.043 130.734 298.695L130.736 298.562C130.742 298.214 131.033 297.936 131.388 297.941Z" fill="white"/>
<path d="M93.5444 301.589L96.881 302.575C97.2205 302.676 97.413 303.027 97.3107 303.361L97.2717 303.487C97.1696 303.821 96.8115 304.01 96.4719 303.909L93.1354 302.923C92.7958 302.823 92.6034 302.471 92.7057 302.138L92.7446 302.011C92.8468 301.678 93.2049 301.489 93.5444 301.589Z" fill="#F1B104"/>
<path d="M141.769 307.567L145.253 307.62C145.608 307.625 145.891 307.911 145.885 308.259L145.883 308.392C145.878 308.74 145.586 309.018 145.231 309.013L141.747 308.96C141.393 308.955 141.11 308.669 141.115 308.321L141.117 308.188C141.123 307.84 141.415 307.562 141.769 307.567Z" fill="#F1B104"/>
<path d="M104.464 311.891L107.948 311.943C108.302 311.948 108.585 312.235 108.58 312.583L108.578 312.715C108.572 313.063 108.28 313.341 107.926 313.336L104.442 313.284C104.087 313.278 103.804 312.992 103.81 312.644L103.812 312.511C103.817 312.163 104.109 311.885 104.464 311.891Z" fill="#573240"/>
<path d="M87.7179 315.184L90.7086 316.94C91.0129 317.118 91.1121 317.505 90.9302 317.804L90.8609 317.918C90.6789 318.217 90.2848 318.314 89.9804 318.135L86.9897 316.38C86.6853 316.201 86.5861 315.814 86.768 315.515L86.8373 315.402C87.0193 315.103 87.4136 315.006 87.7179 315.184Z" fill="#F6ACC1"/>
<path d="M129.153 319.441L132.127 317.659C132.43 317.477 132.825 317.571 133.009 317.868L133.08 317.981C133.264 318.279 133.169 318.667 132.866 318.848L129.892 320.63C129.589 320.811 129.194 320.718 129.009 320.42L128.939 320.307C128.754 320.01 128.85 319.622 129.153 319.441Z" fill="white"/>
<path d="M85.2894 309.875L87.2351 307.037C87.4331 306.748 87.8321 306.672 88.1263 306.866L88.2382 306.94C88.5324 307.135 88.6104 307.526 88.4124 307.815L86.4667 310.653C86.2686 310.942 85.8696 311.018 85.5755 310.824L85.4635 310.75C85.1694 310.556 85.0914 310.164 85.2894 309.875Z" fill="white"/>
<path d="M113.902 311.846L116.876 310.064C117.179 309.883 117.574 309.977 117.758 310.274L117.829 310.387C118.013 310.684 117.918 311.072 117.615 311.253L114.641 313.036C114.338 313.217 113.943 313.123 113.758 312.826L113.688 312.713C113.503 312.416 113.599 312.028 113.902 311.846Z" fill="white"/>
<path d="M123.634 312.564L124.789 315.792C124.907 316.12 124.731 316.48 124.396 316.596L124.269 316.639C123.934 316.755 123.568 316.582 123.45 316.254L122.295 313.026C122.178 312.697 122.354 312.338 122.689 312.222L122.816 312.178C123.15 312.063 123.517 312.236 123.634 312.564Z" fill="#F1B104"/>
<path d="M122.368 322.525L124.356 325.334C124.558 325.62 124.486 326.013 124.195 326.212L124.084 326.287C123.793 326.486 123.393 326.415 123.19 326.129L121.203 323.319C121 323.033 121.073 322.641 121.364 322.442L121.474 322.367C121.766 322.168 122.166 322.239 122.368 322.525Z" fill="#573240"/>
<path d="M93.0043 309.923L94.992 312.733C95.1943 313.019 95.1222 313.412 94.831 313.61L94.7202 313.686C94.429 313.884 94.0289 313.814 93.8267 313.528L91.8389 310.718C91.6366 310.432 91.7087 310.039 91.9999 309.841L92.1107 309.765C92.402 309.566 92.802 309.637 93.0043 309.923Z" fill="#573240"/>
<path d="M137.692 312.42L140.367 314.611C140.64 314.834 140.676 315.232 140.449 315.499L140.362 315.601C140.135 315.868 139.73 315.904 139.458 315.681L136.783 313.489C136.51 313.266 136.474 312.869 136.701 312.602L136.787 312.5C137.014 312.233 137.419 312.197 137.692 312.42Z" fill="#A9D8D5"/>
<path d="M96.5961 320.183L99.2717 322.375C99.5441 322.598 99.5806 322.996 99.3534 323.263L99.267 323.365C99.0398 323.632 98.635 323.668 98.3627 323.445L95.6871 321.253C95.4147 321.03 95.3782 320.633 95.6054 320.365L95.6918 320.264C95.919 319.996 96.3238 319.961 96.5961 320.183Z" fill="#F1B104"/>
<path d="M143.871 297.83L145.985 300.549C146.201 300.826 146.147 301.221 145.865 301.432L145.758 301.513C145.476 301.724 145.073 301.671 144.858 301.394L142.743 298.675C142.528 298.399 142.582 298.003 142.864 297.792L142.971 297.711C143.253 297.5 143.656 297.553 143.871 297.83Z" fill="#A9D8D5"/>
<path d="M131.597 308.335L130.951 311.697C130.885 312.039 130.549 312.264 130.201 312.2L130.068 312.175C129.72 312.111 129.491 311.781 129.556 311.439L130.202 308.077C130.268 307.735 130.603 307.51 130.952 307.574L131.085 307.599C131.433 307.664 131.662 307.993 131.597 308.335Z" fill="#F6ACC1"/>
<path d="M117.988 318.438L115.218 320.514C114.936 320.725 114.533 320.672 114.318 320.395L114.236 320.29C114.021 320.013 114.075 319.618 114.357 319.407L117.126 317.331C117.408 317.119 117.811 317.172 118.026 317.449L118.108 317.554C118.323 317.831 118.269 318.226 117.988 318.438Z" fill="#A9D8D5"/>
<path d="M139.518 303.173L136.749 305.249C136.467 305.461 136.064 305.408 135.849 305.131L135.767 305.026C135.552 304.749 135.606 304.353 135.887 304.142L138.657 302.066C138.939 301.855 139.342 301.908 139.557 302.184L139.639 302.29C139.854 302.566 139.8 302.962 139.518 303.173Z" fill="#573240"/>
<path d="M105.928 318.072L105.283 321.433C105.217 321.775 104.881 322.001 104.533 321.936L104.4 321.911C104.052 321.847 103.823 321.517 103.888 321.175L104.534 317.813C104.599 317.471 104.935 317.246 105.284 317.311L105.416 317.335C105.765 317.4 105.994 317.73 105.928 318.072Z" fill="#F6ACC1"/>
<path d="M101.982 307.56L99.6228 310.077C99.3827 310.334 98.9766 310.35 98.7157 310.115L98.6163 310.025C98.3554 309.789 98.3384 309.391 98.5784 309.134L100.937 306.617C101.177 306.361 101.583 306.344 101.844 306.579L101.944 306.669C102.205 306.905 102.222 307.304 101.982 307.56Z" fill="#A9D8D5"/>
<path d="M235.805 220.981L235.701 221.867H116.118L116.222 220.981H235.805Z" fill="#FDE5E3"/>
<path d="M233.7 231.739C233.537 232.043 233.359 232.338 233.171 232.625H117.653C117.463 232.338 117.285 232.042 117.121 231.739H233.7Z" fill="#FDE5E3"/>
<path d="M235.175 226.36L235.071 227.246H115.751C115.723 226.954 115.706 226.659 115.701 226.36H235.175Z" fill="#FDE5E3"/>
<path d="M247.912 294.25H198.98V348.038H247.912V294.25Z" fill="#F6ACC1"/>
<path d="M198.98 294.25H65.4622V348.038H198.98V294.25Z" fill="#FCD4D0"/>
<path d="M199.039 299.186H65.4622V300.071H199.039V299.186Z" fill="#FDE5E3"/>
<path d="M198.98 304.564H65.4622V305.45H198.98V304.564Z" fill="#FDE5E3"/>
<path d="M198.98 309.943H65.4622V310.829H198.98V309.943Z" fill="#FDE5E3"/>
<path d="M198.98 315.322H65.4622V316.208H198.98V315.322Z" fill="#FDE5E3"/>
<path d="M198.98 320.701H65.4622V321.587H198.98V320.701Z" fill="#FDE5E3"/>
<path d="M198.98 326.079H65.4622V326.965H198.98V326.079Z" fill="#FDE5E3"/>
<path d="M198.98 336.837H65.4622V337.723H198.98V336.837Z" fill="#FDE5E3"/>
<path d="M198.98 331.458H65.4622V332.344H198.98V331.458Z" fill="#FDE5E3"/>
<path d="M198.98 342.216H65.4622V343.101H198.98V342.216Z" fill="#FDE5E3"/>
<path d="M247.912 299.186H199.039V300.071H247.912V299.186Z" fill="#FABFD6"/>
<path d="M247.911 304.564H198.979V305.45H247.911V304.564Z" fill="#FABFD6"/>
<path d="M247.911 309.943H198.979V310.829H247.911V309.943Z" fill="#FABFD6"/>
<path d="M247.911 315.322H198.979V316.208H247.911V315.322Z" fill="#FABFD6"/>
<path d="M247.911 320.701H198.979V321.587H247.911V320.701Z" fill="#FABFD6"/>
<path d="M247.911 326.08H198.979V326.966H247.911V326.08Z" fill="#FABFD6"/>
<path d="M247.911 336.837H198.979V337.723H247.911V336.837Z" fill="#FABFD6"/>
<path d="M247.911 331.459H198.979V332.345H247.911V331.459Z" fill="#FABFD6"/>
<path d="M247.911 342.216H198.979V343.101H247.911V342.216Z" fill="#FABFD6"/>
<path d="M298.321 248.699L286.692 348.038H228.928L217.299 248.699H298.321Z" fill="white"/>
<path d="M298.32 248.699L286.691 348.038H274.107L285.291 252.499H217.743L217.298 248.699H298.32Z" fill="#E0F1F0"/>
<path d="M304.593 248.699H211.028L211.769 244.637C212.087 242.902 213.624 241.638 215.42 241.638H217.025L218.203 237.23C219.028 234.133 221.879 231.974 225.14 231.974H290.48C293.741 231.974 296.591 234.133 297.418 237.23L298.594 241.638H300.2C301.996 241.638 303.534 242.902 303.85 244.637L304.593 248.699Z" fill="#573240"/>
<path d="M228.928 348.038H286.692" stroke="#573240" stroke-width="5" stroke-miterlimit="10" stroke-linecap="round"/>
<path d="M255.603 310.658C265.613 310.658 273.728 302.152 273.728 291.66C273.728 281.169 265.613 272.663 255.603 272.663C245.594 272.663 237.479 281.169 237.479 291.66C237.479 302.152 245.594 310.658 255.603 310.658Z" fill="#A9D8D5"/>
<path d="M258.432 286.262L251.951 296.035C251.608 296.551 250.85 296.584 250.463 296.099C248.833 294.063 248.791 290.842 250.554 288.183C252.318 285.525 255.335 284.26 257.891 284.9C258.499 285.052 258.775 285.746 258.432 286.262Z" fill="#573240"/>
<path d="M260.808 294.738C259.062 297.37 256.086 298.635 253.548 298.041C252.933 297.897 252.652 297.196 252.996 296.676L259.453 286.941C259.798 286.422 260.565 286.391 260.947 286.884C262.528 288.923 262.554 292.106 260.808 294.738Z" fill="#573240"/>
</svg>
