<svg width="1300" height="1300" viewBox="0 0 1300 1300" fill="none" xmlns="http://www.w3.org/2000/svg">
<path d="M650 1300C290.71 1300 0 1008.86 0 650C0 290.71 291.141 0 650 0C1009.29 0 1300 291.141 1300 650C1300.43 1009.29 1009.29 1300 650 1300Z" fill="#FDFFFF"/>
<mask id="mask0_314_925" style="mask-type:alpha" maskUnits="userSpaceOnUse" x="0" y="0" width="1301" height="1300">
<path d="M650 1300C290.71 1300 0 1008.86 0 650C0 290.71 291.141 0 650 0C1009.29 0 1300 291.141 1300 650C1300.43 1009.29 1009.29 1300 650 1300Z" fill="#F7C0B5"/>
</mask>
<g mask="url(#mask0_314_925)">
<path d="M1015.73 1197.33C1012.7 1199.5 1009.23 1201.66 1006.2 1203.83C1002.73 1206 999.698 1208.16 996.231 1209.9C993.198 1211.63 990.598 1213.36 987.564 1215.1C987.131 1215.53 986.698 1215.53 986.264 1215.96C976.298 1222.03 965.898 1227.66 955.498 1232.86C952.464 1234.6 948.998 1236.33 945.964 1237.63C945.964 1237.63 945.531 1238.06 945.098 1238.06C941.631 1239.8 938.164 1241.53 934.698 1243.26C927.764 1246.73 920.398 1249.76 913.464 1252.8C909.998 1254.53 906.098 1255.83 902.631 1257.13C899.164 1258.43 895.264 1260.16 891.798 1261.46C888.331 1262.76 884.431 1264.5 880.964 1265.8C880.964 1265.8 880.964 1265.8 880.531 1265.8C877.064 1267.1 873.164 1268.4 869.698 1269.7C861.898 1272.3 853.664 1274.9 845.864 1277.5C843.264 1278.36 840.231 1279.23 837.631 1280.1C829.398 1282.7 821.164 1284.86 812.931 1286.6C809.898 1287.46 806.864 1287.9 803.398 1288.76C795.598 1290.5 787.364 1292.23 779.564 1293.96C777.831 1294.4 776.531 1294.4 774.798 1294.83C772.198 1295.26 769.164 1295.7 766.564 1296.13C762.664 1296.56 759.198 1297.43 755.298 1297.86C753.564 1298.3 751.831 1298.3 750.098 1298.73C747.931 1299.16 745.331 1299.6 742.731 1299.6C735.798 1300.46 728.431 1301.33 721.498 1302.2C719.331 1302.63 716.731 1302.63 714.564 1303.06H714.131C711.098 1303.5 708.064 1303.5 705.031 1303.93C701.998 1304.36 698.964 1304.36 695.931 1304.36C694.198 1304.36 692.031 1304.8 690.298 1304.8C686.831 1304.8 683.798 1305.23 680.764 1305.23C676.431 1305.23 672.531 1305.66 668.198 1305.66C663.864 1305.66 659.964 1305.66 655.631 1305.66C652.598 1305.66 649.564 1305.66 646.531 1305.66C464.098 1303.06 299.431 1225.5 182.431 1102.43C182.431 1102.43 182.431 1102 181.998 1102C195.431 1075.56 245.264 1027.9 297.264 988.465C363.131 938.632 456.298 907.865 456.298 907.865C456.298 907.865 517.398 897.898 744.031 945.132C916.931 981.532 990.598 1129.3 1015.73 1197.33Z" fill="#FEE4BF"/>
<path d="M792.131 1065.16C783.031 1109.8 724.098 1136.23 624.865 1096.36C503.098 1046.96 456.298 907.865 456.298 907.865C449.798 808.198 434.631 722.832 434.631 722.832C575.465 710.698 741.865 875.365 741.865 875.365L760.931 956.832C762.665 963.765 766.131 969.832 771.331 974.165C780.431 989.765 798.198 1036.56 792.131 1065.16Z" fill="#FEE4BF"/>
<path d="M771.331 974.599C688.564 970.265 627.464 958.132 562.031 840.699C617.497 889.665 682.931 908.299 751.831 916.965L760.931 956.832C762.664 964.199 766.131 970.265 771.331 974.599Z" fill="#EFBDA5"/>
<path d="M942.498 452.432C950.298 488.832 954.198 518.298 932.964 615.365C911.731 712.432 952.464 809.498 850.198 898.332C781.298 958.132 660.831 969.398 564.631 903.965C532.131 881.865 502.231 851.098 477.964 810.798C458.898 779.165 436.798 749.265 412.098 721.965C377.864 684.698 336.698 609.732 357.064 477.132C389.998 261.332 603.631 236.632 729.731 260.465C855.831 284.298 921.264 356.232 942.498 452.432Z" fill="#FEE4BF"/>
<path d="M527.797 621.865C527.797 621.865 514.364 556.865 451.097 564.665C396.497 571.598 377.431 702.465 501.364 738.865" fill="#FEE4BF"/>
<path d="M497.465 679.498C497.465 679.498 481.865 669.532 483.598 652.198C486.198 631.832 483.598 619.265 474.065 615.365C450.231 605.398 445.465 633.132 446.331 636.598" stroke="#423232" stroke-width="13" stroke-miterlimit="10" stroke-linecap="round" stroke-linejoin="round"/>
<path d="M828.097 721.532C828.097 721.532 844.564 722.398 860.164 703.765C868.831 693.365 876.197 680.365 871.431 676.465C866.664 672.132 788.231 684.265 783.031 694.665C777.831 705.065 808.164 721.532 828.097 721.532Z" fill="#EFBDA5"/>
<path d="M841.098 575.932C841.098 575.932 841.965 617.098 868.398 663.032C880.098 683.398 862.331 716.765 823.765 722.398" stroke="#423232" stroke-width="13" stroke-miterlimit="10" stroke-linecap="round" stroke-linejoin="round"/>
<path opacity="0.42" d="M606.231 743.632C630.882 743.632 650.865 727.141 650.865 706.799C650.865 686.456 630.882 669.965 606.231 669.965C581.581 669.965 561.598 686.456 561.598 706.799C561.598 727.141 581.581 743.632 606.231 743.632Z" fill="#F2A5B2"/>
<path opacity="0.42" d="M926.031 670.832C924.731 695.098 925.164 718.932 923.431 742.765C904.364 738.432 890.498 724.132 890.498 707.232C890.498 689.032 905.664 674.298 926.031 670.832Z" fill="#F2A5B2"/>
<path d="M907.837 1029.6C907.837 1029.6 840.67 966.767 774.37 951.6C774.37 951.6 782.17 1063.4 703.303 1055.17C575.903 1041.73 455.87 906.534 455.87 906.534C455.87 906.534 372.237 929.934 304.637 981.5C304.637 981.5 313.737 1114.53 465.837 1180.4C617.937 1246.27 829.837 1213.77 880.103 1171.3C930.37 1128.83 920.403 1043.47 907.837 1029.6Z" fill="white"/>
<path d="M267.37 1010.1C267.37 1010.1 183.303 1056.47 137.37 1188.63C91.4366 1320.8 92.7366 1517.53 92.7366 1517.53H1081.6C1081.6 1517.53 1053.87 1192.97 955.937 1084.63C955.937 1084.63 962.437 1181.7 770.47 1191.67C578.503 1201.63 347.537 1140.53 341.903 1105C336.703 1068.6 267.37 1010.1 267.37 1010.1Z" fill="white"/>
<path d="M996.236 1525.33C724.103 1651 276.036 1537.47 276.036 1537.47C276.036 1537.47 266.936 1426.97 299.87 1228.07C301.17 1218.97 302.47 1209.87 303.336 1201.63C312.87 1111.5 290.77 1049.53 267.37 1010.53C267.37 1000.57 277.77 993.634 289.47 983.667C294.236 979.767 379.603 926.9 383.07 929.5C389.136 938.167 394.77 946.834 399.536 955.934C448.07 1045.63 464.97 1141.83 565.936 1155.7C665.603 1169.57 761.803 1167.4 830.703 1152.23C897.003 1137.5 852.803 1027.43 823.336 973.267C822.036 971.1 822.036 970.234 820.736 969.367C830.703 962.867 946.403 1051.7 955.503 1084.63C974.57 1132.3 979.77 1167.83 985.403 1214.2C1004.04 1366.3 996.236 1525.33 996.236 1525.33Z" fill="#77A0E0"/>
<path d="M401.269 1152.67C416.586 1152.67 429.003 1140.25 429.003 1124.93C429.003 1109.62 416.586 1097.2 401.269 1097.2C385.953 1097.2 373.536 1109.62 373.536 1124.93C373.536 1140.25 385.953 1152.67 401.269 1152.67Z" fill="#647184"/>
<path d="M918.237 1164.37C932.118 1164.37 943.37 1153.11 943.37 1139.23C943.37 1125.35 932.118 1114.1 918.237 1114.1C904.356 1114.1 893.104 1125.35 893.104 1139.23C893.104 1153.11 904.356 1164.37 918.237 1164.37Z" fill="#647184"/>
<path d="M594.97 1203.8C660.836 1207.7 743.17 1209 812.07 1199.03C858.436 1192.53 900.47 1226.77 903.936 1273.13C906.97 1319.07 908.27 1374.97 900.903 1423.93C885.736 1529.67 507.436 1524.47 501.37 1431.3C497.903 1383.2 494.87 1344.2 491.403 1312.13C484.903 1251.9 534.303 1200.33 594.97 1203.8Z" stroke="#647184" stroke-width="13" stroke-miterlimit="10"/>
<path d="M721.07 1054.73C721.07 1054.73 641.77 1150.93 617.504 1143.57C593.237 1136.2 442.437 1056.03 418.604 919.1C418.604 919.1 437.237 888.767 453.704 879.234C453.704 879.234 499.204 959.4 581.537 1007.5C659.97 1053 721.07 1054.73 721.07 1054.73Z" fill="white"/>
<path d="M721.07 1054.73C721.07 1054.73 641.77 1150.93 617.504 1143.57C593.237 1136.2 442.437 1056.03 418.604 919.1" stroke="#D0D6DD" stroke-width="13" stroke-miterlimit="10" stroke-linecap="round" stroke-linejoin="round"/>
<path d="M721.069 1054.73C721.069 1054.73 782.603 1126.67 802.969 1127.53C823.336 1128.4 832.003 1001.87 770.903 937.734C770.903 937.734 761.369 940.334 757.469 941.2C757.036 940.767 787.803 1033.07 721.069 1054.73Z" fill="white"/>
<path d="M721.069 1054.73C721.069 1054.73 782.603 1126.67 802.969 1127.53C823.336 1128.4 832.003 1001.87 770.903 937.734" stroke="#D0D6DD" stroke-width="13" stroke-miterlimit="10" stroke-linecap="round" stroke-linejoin="round"/>
<path d="M715.003 1061.67C715.003 1061.67 702.869 1075.1 707.203 1104.57C711.536 1133.6 710.669 1162.63 710.669 1162.63" stroke="#D0D6DD" stroke-width="13" stroke-miterlimit="10" stroke-linecap="round" stroke-linejoin="round"/>
<path d="M737.103 1126.67C742.608 1126.67 747.07 1122.2 747.07 1116.7C747.07 1111.2 742.608 1106.73 737.103 1106.73C731.599 1106.73 727.137 1111.2 727.137 1116.7C727.137 1122.2 731.599 1126.67 737.103 1126.67Z" fill="#D0D6DD"/>
<path d="M683.943 619.439C673.543 619.006 665.743 610.339 666.61 599.939L667.043 587.806C667.476 577.406 676.143 569.606 686.543 570.473C696.943 570.906 704.743 579.573 703.876 589.973L703.443 602.106C703.01 612.073 694.343 619.873 683.943 619.439Z" fill="#423232"/>
<path d="M866.375 625.939C856.842 625.506 849.475 617.272 849.909 607.739L850.342 596.472C850.775 586.939 859.009 579.572 868.542 580.006C878.075 580.439 885.442 588.672 885.009 598.206L884.575 609.472C884.142 619.006 875.909 626.372 866.375 625.939Z" fill="#423232"/>
<path d="M725.977 594.306C725.977 594.306 714.71 578.273 695.21 575.239C679.177 572.639 661.41 580.439 658.81 589.539" stroke="#423232" stroke-width="13" stroke-miterlimit="10" stroke-linecap="round" stroke-linejoin="round"/>
<path d="M853.809 598.206C853.809 598.206 853.809 584.339 873.743 584.339C890.209 584.339 897.143 599.506 897.143 599.506" stroke="#423232" stroke-width="13" stroke-miterlimit="10" stroke-linecap="round" stroke-linejoin="round"/>
<path d="M743.743 524.539C752.843 527.573 761.943 519.339 760.209 509.373C759.343 504.173 757.176 498.973 752.843 495.073C739.843 483.373 686.109 472.973 653.609 488.139C625.009 502.006 702.143 510.673 743.743 524.539Z" fill="#423232"/>
<path d="M873.308 531.473C865.941 534.073 858.141 526.273 859.441 517.173C859.874 512.406 861.608 507.639 865.074 504.173C875.474 493.773 911.008 485.539 933.541 501.573C953.041 515.006 907.108 518.906 873.308 531.473Z" fill="#423232"/>
<path d="M809.297 750.856C809.297 750.856 820.564 744.789 826.631 755.189C832.697 765.589 817.964 777.289 817.964 777.289C817.964 777.289 834.431 789.423 823.164 804.589C814.064 816.723 800.198 815.856 800.198 815.856" stroke="#423232" stroke-width="13" stroke-miterlimit="10" stroke-linecap="round" stroke-linejoin="round"/>
<path d="M766.187 939.663C797.82 931.43 825.987 917.13 848.954 897.196C951.22 808.796 910.487 711.296 931.72 614.23C938.654 583.03 942.554 558.763 945.154 539.263C941.687 538.83 937.787 538.396 933.887 537.53C918.287 535.363 907.887 521.063 909.62 505.463C910.487 498.963 910.92 492.463 911.354 485.53C909.62 485.096 910.054 485.097 908.32 485.097C905.72 493.33 902.687 501.996 900.52 510.23C896.62 523.23 884.054 531.463 871.054 530.597H870.62C855.454 529.297 844.187 516.73 844.187 501.563C844.62 490.73 844.62 479.896 845.054 469.063C843.32 468.63 844.187 469.063 842.454 468.63C840.287 479.897 838.12 491.163 835.954 502.863C833.354 517.163 820.787 527.13 806.487 526.263C769.22 524.53 732.387 524.097 699.02 524.097C684.287 524.097 672.154 513.263 670.854 498.53C668.687 479.463 665.654 460.396 660.454 440.896C654.82 458.23 654.82 476.43 655.687 495.063C656.554 511.096 643.987 524.53 627.954 524.963C589.387 525.83 563.387 527.13 559.054 527.563C560.354 586.93 546.92 652.796 523.087 608.163C521.354 605.13 520.054 602.096 518.32 598.196C508.354 580.43 488.42 559.197 450.72 563.963C397.854 570.897 378.354 693.53 489.287 734.263C489.72 743.363 491.887 752.463 495.787 761.996C512.687 803.163 520.054 837.396 520.054 865.563C520.054 1028.93 252.687 960.896 177.287 812.696C148.254 755.063 147.82 685.73 202.854 612.93C337.62 447.83 297.32 510.663 327.22 412.73C376.187 252.396 487.987 201.263 636.187 202.563C636.187 202.563 882.754 202.563 948.187 262.363C1013.62 322.163 991.087 508.93 985.454 525.83C983.72 531.03 979.387 534.063 974.62 536.23C972.02 621.596 980.687 651.496 1011.02 720.396C1077.32 872.063 952.087 1016.36 766.187 939.663Z" fill="#423232"/>
<path d="M523.087 608.596C521.354 605.562 520.054 602.529 518.32 598.629C520.054 602.096 521.787 605.562 523.087 608.596Z" fill="#FEE4BF"/>
<path opacity="0.6" d="M865.083 677.253C865.083 677.253 870.283 706.72 904.516 721.453C913.183 724.92 922.283 719.287 922.283 709.753C921.849 709.753 867.249 680.72 865.083 677.253Z" fill="#B7AEA9"/>
<path opacity="0.6" d="M782.75 606.187C782.75 606.187 810.483 578.453 824.35 575.42L787.516 584.087L782.75 606.187Z" fill="#B7AEA9"/>
<path opacity="0.6" d="M597.716 677.254C597.716 677.254 613.75 713.654 661.85 722.32C709.95 731.42 753.716 696.754 774.083 638.687C774.083 638.687 757.616 692.42 691.75 702.387C626.316 713.22 597.716 677.254 597.716 677.254Z" fill="#B7AEA9"/>
<path opacity="0.29" d="M675.283 482.687C614.183 482.687 564.349 533.82 563.916 596.22C563.916 625.687 574.749 652.554 592.516 672.054L749.816 513.02C730.316 493.954 704.316 482.687 675.283 482.687Z" fill="#DBC3ED"/>
<path opacity="0.23" d="M749.817 513.02L592.517 672.054C612.45 694.154 640.617 707.587 671.817 707.587C732.05 707.587 781.45 657.754 783.183 595.787C784.05 563.287 771.05 533.82 749.817 513.02Z" fill="#C4ADD8"/>
<path opacity="0.29" d="M928.783 482.687C882.416 482.687 843.416 533.82 841.683 596.22C840.816 621.354 846.449 644.32 855.983 662.954L993.349 526.887C979.049 500.02 955.649 482.687 928.783 482.687Z" fill="#DBC3ED"/>
<path opacity="0.23" d="M993.349 526.453L855.982 662.52C870.282 689.82 893.682 707.586 920.982 707.586C966.482 707.586 1005.48 657.753 1008.08 595.786C1008.95 570.22 1003.32 545.953 993.349 526.453Z" fill="#C4ADD8"/>
<path d="M783.182 596.22C781.882 658.187 732.049 708.02 671.816 708.02C611.582 708.02 563.482 658.187 563.482 596.22C563.916 533.82 613.749 482.687 674.849 482.687C735.949 482.687 784.916 533.82 783.182 596.22Z" stroke="#4EC2DD" stroke-width="13" stroke-miterlimit="10" stroke-linecap="round" stroke-linejoin="round"/>
<path d="M1008.08 596.22C1005.48 658.187 966.483 708.02 920.983 708.02C875.483 708.02 839.949 658.187 841.683 596.22C843.416 533.82 882.416 482.687 928.783 482.687C975.149 482.687 1010.68 533.82 1008.08 596.22Z" stroke="#4EC2DD" stroke-width="13" stroke-miterlimit="10" stroke-linecap="round" stroke-linejoin="round"/>
<path d="M564.783 584.087H503.25" stroke="#4EC2DD" stroke-width="13" stroke-miterlimit="10" stroke-linecap="round" stroke-linejoin="round"/>
<path d="M783.616 584.087C783.616 584.087 835.182 564.153 841.682 584.087" stroke="#4EC2DD" stroke-width="13" stroke-miterlimit="10" stroke-linecap="round" stroke-linejoin="round"/>
</g>
</svg>
